<mxfile host="app.diagrams.net" modified="2021-11-04T08:51:21.344Z" agent="5.0 (Windows NT 10.0; Win64; x64) AppleWebKit/537.36 (KHTML, like Gecko) Chrome/95.0.4638.54 Safari/537.36 Edg/95.0.1020.40" etag="S8rXStyS2mBbUcNx7NWB" version="15.6.8" type="github">
  <diagram id="UyAn-6XttCJMGp4K2GlG" name="Page-1">
    <mxGraphModel dx="868" dy="450" grid="1" gridSize="10" guides="1" tooltips="1" connect="1" arrows="1" fold="1" page="1" pageScale="1" pageWidth="850" pageHeight="1100" math="0" shadow="0">
      <root>
        <mxCell id="0" />
        <mxCell id="1" parent="0" />
        <mxCell id="Usjf7oMxLt9PCGklW3lA-2" value="RabbitMQ" style="shape=cylinder3;whiteSpace=wrap;html=1;boundedLbl=1;backgroundOutline=1;size=15;" parent="1" vertex="1">
          <mxGeometry x="600" y="170" width="60" height="80" as="geometry" />
        </mxCell>
        <mxCell id="2jT_Ej1N7XK5PgUwRGg6-1" value="REST API" style="whiteSpace=wrap;html=1;aspect=fixed;" vertex="1" parent="1">
          <mxGeometry x="450" y="170" width="80" height="80" as="geometry" />
        </mxCell>
        <mxCell id="2jT_Ej1N7XK5PgUwRGg6-4" value="" style="endArrow=classic;startArrow=classic;html=1;rounded=0;exitX=1;exitY=0.5;exitDx=0;exitDy=0;entryX=0;entryY=0.5;entryDx=0;entryDy=0;entryPerimeter=0;" edge="1" parent="1" source="2jT_Ej1N7XK5PgUwRGg6-1" target="Usjf7oMxLt9PCGklW3lA-2">
          <mxGeometry width="50" height="50" relative="1" as="geometry">
            <mxPoint x="400" y="260" as="sourcePoint" />
            <mxPoint x="530" y="220" as="targetPoint" />
          </mxGeometry>
        </mxCell>
        <mxCell id="2jT_Ej1N7XK5PgUwRGg6-6" value="User&lt;br&gt;" style="shape=umlActor;verticalLabelPosition=bottom;verticalAlign=top;html=1;outlineConnect=0;" vertex="1" parent="1">
          <mxGeometry x="60" y="180" width="30" height="60" as="geometry" />
        </mxCell>
        <mxCell id="2jT_Ej1N7XK5PgUwRGg6-7" value="JavaFX &lt;br&gt;APP" style="whiteSpace=wrap;html=1;aspect=fixed;" vertex="1" parent="1">
          <mxGeometry x="150" y="170" width="80" height="80" as="geometry" />
        </mxCell>
        <mxCell id="2jT_Ej1N7XK5PgUwRGg6-8" value="" style="endArrow=classic;startArrow=classic;html=1;rounded=0;exitX=1;exitY=0.5;exitDx=0;exitDy=0;entryX=0;entryY=0.5;entryDx=0;entryDy=0;" edge="1" parent="1" source="2jT_Ej1N7XK5PgUwRGg6-7" target="2jT_Ej1N7XK5PgUwRGg6-1">
          <mxGeometry width="50" height="50" relative="1" as="geometry">
            <mxPoint x="400" y="260" as="sourcePoint" />
            <mxPoint x="420" y="210" as="targetPoint" />
          </mxGeometry>
        </mxCell>
        <mxCell id="2jT_Ej1N7XK5PgUwRGg6-9" value="" style="endArrow=classic;startArrow=classic;html=1;rounded=0;entryX=0;entryY=0.5;entryDx=0;entryDy=0;exitX=0.5;exitY=0.5;exitDx=0;exitDy=0;exitPerimeter=0;" edge="1" parent="1" source="2jT_Ej1N7XK5PgUwRGg6-6" target="2jT_Ej1N7XK5PgUwRGg6-7">
          <mxGeometry width="50" height="50" relative="1" as="geometry">
            <mxPoint x="400" y="260" as="sourcePoint" />
            <mxPoint x="450" y="210" as="targetPoint" />
          </mxGeometry>
        </mxCell>
        <mxCell id="2jT_Ej1N7XK5PgUwRGg6-10" value="User&lt;br&gt;" style="shape=umlActor;verticalLabelPosition=bottom;verticalAlign=top;html=1;outlineConnect=0;" vertex="1" parent="1">
          <mxGeometry x="60" y="70" width="30" height="60" as="geometry" />
        </mxCell>
        <mxCell id="2jT_Ej1N7XK5PgUwRGg6-11" value="User&lt;br&gt;" style="shape=umlActor;verticalLabelPosition=bottom;verticalAlign=top;html=1;outlineConnect=0;" vertex="1" parent="1">
          <mxGeometry x="60" y="290" width="30" height="60" as="geometry" />
        </mxCell>
        <mxCell id="2jT_Ej1N7XK5PgUwRGg6-13" value="Browser&lt;br&gt;APP" style="whiteSpace=wrap;html=1;aspect=fixed;" vertex="1" parent="1">
          <mxGeometry x="150" y="60" width="80" height="80" as="geometry" />
        </mxCell>
        <mxCell id="2jT_Ej1N7XK5PgUwRGg6-14" value="Mobile&lt;br&gt;APP" style="whiteSpace=wrap;html=1;aspect=fixed;" vertex="1" parent="1">
          <mxGeometry x="150" y="280" width="80" height="80" as="geometry" />
        </mxCell>
        <mxCell id="2jT_Ej1N7XK5PgUwRGg6-15" value="" style="endArrow=classic;startArrow=classic;html=1;rounded=0;entryX=0;entryY=0.5;entryDx=0;entryDy=0;" edge="1" parent="1" target="2jT_Ej1N7XK5PgUwRGg6-1">
          <mxGeometry width="50" height="50" relative="1" as="geometry">
            <mxPoint x="230" y="100" as="sourcePoint" />
            <mxPoint x="450" y="190" as="targetPoint" />
          </mxGeometry>
        </mxCell>
        <mxCell id="2jT_Ej1N7XK5PgUwRGg6-16" value="" style="endArrow=classic;startArrow=classic;html=1;rounded=0;exitX=1;exitY=0.5;exitDx=0;exitDy=0;entryX=0;entryY=0.5;entryDx=0;entryDy=0;" edge="1" parent="1" source="2jT_Ej1N7XK5PgUwRGg6-14" target="2jT_Ej1N7XK5PgUwRGg6-1">
          <mxGeometry width="50" height="50" relative="1" as="geometry">
            <mxPoint x="400" y="240" as="sourcePoint" />
            <mxPoint x="450" y="190" as="targetPoint" />
          </mxGeometry>
        </mxCell>
      </root>
    </mxGraphModel>
  </diagram>
</mxfile>
